[ConversionWorker] Logging FFmpeg output to: ffmpeg_logs\ffmpeg_conversion_t_wav_20250525_154756.log\n[ConversionWorker] Getting duration with command: ffprobe -v error -show_entries format=duration -of default=noprint_wrappers=1:nokey=1 Z:\AAAAA01\t.wav\n[ConversionWorker] Duration for t.wav: 11418446 ms\n[ConversionWorker] Starting FFmpeg for t.wav: ffmpeg -i Z:\AAAAA01\t.wav -b:a 256k -vn -y -loglevel error -stats -progress pipe:1 Z:\AAAAA01\t.mp3\n[ConversionWorker] FFmpeg process started. PID: 30488\n[STDOUT RAW] bitrate= 153.2kbits/s\n[STDOUT RAW] total_size=75404\n[STDOUT RAW] out_time_us=3937958\n[STDOUT RAW] out_time_ms=3937958\n[STDOUT RAW] out_time=00:00:03.937958\n[STDOUT RAW] dup_frames=0\n[STDOUT RAW] drop_frames=0\n[STDOUT RAW] speed=7.61x\n[STDOUT RAW] progress=continue\n[STDERR RAW] size=      74KiB time=00:00:03.93 bitrate= 153.2kbits/s speed=7.61x\n[STDOUT RAW] bitrate= 156.7kbits/s\n[STDOUT RAW] total_size=158924\n[STDOUT RAW] out_time_us=8113958\n[STDOUT RAW] out_time_ms=8113958\n[STDOUT RAW] out_time=00:00:08.113958\n[STDOUT RAW] dup_frames=0\n[STDOUT RAW] drop_frames=0\n[STDOUT RAW] speed=7.82x\n[STDOUT RAW] progress=continue\n[STDERR RAW] size=     155KiB time=00:00:08.11 bitrate= 156.7kbits/s speed=7.82x\n[STDOUT RAW] bitrate= 157.9kbits/s\n[STDOUT RAW] total_size=249164\n[STDOUT RAW] out_time_us=12625958\n[STDOUT RAW] out_time_ms=12625958\n[STDOUT RAW] out_time=00:00:12.625958\n[STDOUT RAW] dup_frames=0\n[STDOUT RAW] drop_frames=0\n[STDOUT RAW] speed=8.17x\n[STDOUT RAW] progress=continue\n[STDERR RAW] size=     243KiB time=00:00:12.62 bitrate= 157.9kbits/s speed=8.17x\n[STDOUT RAW] bitrate= 156.5kbits/s\n[STDOUT RAW] total_size=2097152\n[STDOUT RAW] out_time_us=107185958\n[STDOUT RAW] out_time_ms=107185958\n[STDOUT RAW] out_time=00:01:47.185958\n[STDOUT RAW] dup_frames=0\n[STDOUT RAW] drop_frames=0\n[STDOUT RAW] speed=51.8x\n[STDOUT RAW] progress=continue\n[STDERR RAW] size=    2048KiB time=00:01:47.18 bitrate= 156.5kbits/s speed=51.8x\n[STDOUT RAW] bitrate= 150.7kbits/s\n[STDOUT RAW] total_size=3932160\n[STDOUT RAW] out_time_us=208777958\n[STDOUT RAW] out_time_ms=208777958\n[STDOUT RAW] out_time=00:03:28.777958\n[STDOUT RAW] dup_frames=0\n[STDOUT RAW] drop_frames=0\n[STDOUT RAW] speed=  81x\n[STDOUT RAW] progress=continue\n[STDERR RAW] size=    3840KiB time=00:03:28.77 bitrate= 150.7kbits/s speed=  81x\n[STDOUT RAW] bitrate= 155.5kbits/s\n[STDOUT RAW] total_size=6029312\n[STDOUT RAW] out_time_us=310105958\n[STDOUT RAW] out_time_ms=310105958\n[STDOUT RAW] out_time=00:05:10.105958\n[STDOUT RAW] dup_frames=0\n[STDOUT RAW] drop_frames=0\n[STDOUT RAW] speed=99.9x\n[STDOUT RAW] progress=continue\n[STDERR RAW] size=    5888KiB time=00:05:10.10 bitrate= 155.5kbits/s speed=99.9x\n[STDOUT RAW] bitrate= 154.8kbits/s\n[STDOUT RAW] total_size=7864320\n[STDOUT RAW] out_time_us=406465958\n[STDOUT RAW] out_time_ms=406465958\n[STDOUT RAW] out_time=00:06:46.465958\n[STDOUT RAW] dup_frames=0\n[STDOUT RAW] drop_frames=0\n[STDOUT RAW] speed= 113x\n[STDOUT RAW] progress=continue\n[STDERR RAW] size=    7680KiB time=00:06:46.46 bitrate= 154.8kbits/s speed= 113x\n[STDOUT RAW] bitrate= 156.8kbits/s\n[STDOUT RAW] total_size=9961472\n[STDOUT RAW] out_time_us=508177958\n[STDOUT RAW] out_time_ms=508177958\n[STDOUT RAW] out_time=00:08:28.177958\n[STDOUT RAW] dup_frames=0\n[STDOUT RAW] drop_frames=0\n[STDOUT RAW] speed= 123x\n[STDOUT RAW] progress=continue\n[STDERR RAW] size=    9728KiB time=00:08:28.17 bitrate= 156.8kbits/s speed= 123x\n[STDOUT RAW] bitrate= 159.6kbits/s\n[STDOUT RAW] total_size=12058624\n[STDOUT RAW] out_time_us=604513958\n[STDOUT RAW] out_time_ms=604513958\n[STDOUT RAW] out_time=00:10:04.513958\n[STDOUT RAW] dup_frames=0\n[STDOUT RAW] drop_frames=0\n[STDOUT RAW] speed= 130x\n[STDOUT RAW] progress=continue\n[STDERR RAW] size=   11776KiB time=00:10:04.51 bitrate= 159.6kbits/s speed= 130x\n[STDOUT RAW] bitrate= 159.9kbits/s\n[STDOUT RAW] total_size=13893632\n[STDOUT RAW] out_time_us=695161958\n[STDOUT RAW] out_time_ms=695161958\n[STDOUT RAW] out_time=00:11:35.161958\n[STDOUT RAW] dup_frames=0\n[STDOUT RAW] drop_frames=0\n[STDOUT RAW] speed= 135x\n[STDOUT RAW] progress=continue\n[STDERR RAW] size=   13568KiB time=00:11:35.16 bitrate= 159.9kbits/s speed= 135x\n[STDOUT RAW] bitrate= 157.4kbits/s\n[STDOUT RAW] total_size=15466496\n[STDOUT RAW] out_time_us=785977958\n[STDOUT RAW] out_time_ms=785977958\n[STDOUT RAW] out_time=00:13:05.977958\n[STDOUT RAW] dup_frames=0\n[STDOUT RAW] drop_frames=0\n[STDOUT RAW] speed= 138x\n[STDOUT RAW] progress=continue\n[STDERR RAW] size=   15104KiB time=00:13:05.97 bitrate= 157.4kbits/s speed= 138x\n[STDOUT RAW] bitrate= 158.1kbits/s\n[STDOUT RAW] total_size=17301504\n[STDOUT RAW] out_time_us=875305958\n[STDOUT RAW] out_time_ms=875305958\n[STDOUT RAW] out_time=00:14:35.305958\n[STDOUT RAW] dup_frames=0\n[STDOUT RAW] drop_frames=0\n[STDOUT RAW] speed= 142x\n[STDOUT RAW] progress=continue\n[STDERR RAW] size=   16896KiB time=00:14:35.30 bitrate= 158.1kbits/s speed= 142x\n[STDOUT RAW] bitrate= 158.6kbits/s\n[STDOUT RAW] total_size=19136512\n[STDOUT RAW] out_time_us=965065958\n[STDOUT RAW] out_time_ms=965065958\n[STDOUT RAW] out_time=00:16:05.065958\n[STDOUT RAW] dup_frames=0\n[STDOUT RAW] drop_frames=0\n[STDOUT RAW] speed= 144x\n[STDOUT RAW] progress=continue\n[STDERR RAW] size=   18688KiB time=00:16:05.06 bitrate= 158.6kbits/s speed= 144x\n[STDOUT RAW] bitrate= 158.0kbits/s\n[STDOUT RAW] total_size=20709376\n[STDOUT RAW] out_time_us=1048705958\n[STDOUT RAW] out_time_ms=1048705958\n[STDOUT RAW] out_time=00:17:28.705958\n[STDOUT RAW] dup_frames=0\n[STDOUT RAW] drop_frames=0\n[STDOUT RAW] speed= 145x\n[STDOUT RAW] progress=continue\n[STDERR RAW] size=   20224KiB time=00:17:28.70 bitrate= 158.0kbits/s speed= 145x\n[STDOUT RAW] bitrate= 158.3kbits/s\n[STDOUT RAW] total_size=22544384\n[STDOUT RAW] out_time_us=1139449958\n[STDOUT RAW] out_time_ms=1139449958\n[STDOUT RAW] out_time=00:18:59.449958\n[STDOUT RAW] dup_frames=0\n[STDOUT RAW] drop_frames=0\n[STDOUT RAW] speed= 147x\n[STDOUT RAW] progress=continue\n[STDERR RAW] size=   22016KiB time=00:18:59.44 bitrate= 158.3kbits/s speed= 147x\n[STDOUT RAW] bitrate= 158.8kbits/s\n[STDOUT RAW] total_size=24379392\n[STDOUT RAW] out_time_us=1228465958\n[STDOUT RAW] out_time_ms=1228465958\n[STDOUT RAW] out_time=00:20:28.465958\n[STDOUT RAW] dup_frames=0\n[STDOUT RAW] drop_frames=0\n[STDOUT RAW] speed= 149x\n[STDOUT RAW] progress=continue\n[STDERR RAW] size=   23808KiB time=00:20:28.46 bitrate= 158.8kbits/s speed= 149x\n[STDOUT RAW] bitrate= 158.9kbits/s\n[STDOUT RAW] total_size=26214400\n[STDOUT RAW] out_time_us=1319617958\n[STDOUT RAW] out_time_ms=1319617958\n[STDOUT RAW] out_time=00:21:59.617958\n[STDOUT RAW] dup_frames=0\n[STDOUT RAW] drop_frames=0\n[STDOUT RAW] speed= 151x\n[STDOUT RAW] progress=continue\n[STDERR RAW] size=   25600KiB time=00:21:59.61 bitrate= 158.9kbits/s speed= 151x\n[STDOUT RAW] bitrate= 159.1kbits/s\n[STDOUT RAW] total_size=28049408\n[STDOUT RAW] out_time_us=1410841958\n[STDOUT RAW] out_time_ms=1410841958\n[STDOUT RAW] out_time=00:23:30.841958\n[STDOUT RAW] dup_frames=0\n[STDOUT RAW] drop_frames=0\n[STDOUT RAW] speed= 152x\n[STDOUT RAW] progress=continue\n[STDERR RAW] size=   27392KiB time=00:23:30.84 bitrate= 159.1kbits/s speed= 152x\n[STDOUT RAW] bitrate= 159.9kbits/s\n[STDOUT RAW] total_size=29884416\n[STDOUT RAW] out_time_us=1495417958\n[STDOUT RAW] out_time_ms=1495417958\n[STDOUT RAW] out_time=00:24:55.417958\n[STDOUT RAW] dup_frames=0\n[STDOUT RAW] drop_frames=0\n[STDOUT RAW] speed= 153x\n[STDOUT RAW] progress=continue\n[STDERR RAW] size=   29184KiB time=00:24:55.41 bitrate= 159.9kbits/s speed= 153x\n[STDOUT RAW] bitrate= 159.6kbits/s\n[STDOUT RAW] total_size=31719424\n[STDOUT RAW] out_time_us=1589497958\n[STDOUT RAW] out_time_ms=1589497958\n[STDOUT RAW] out_time=00:26:29.497958\n[STDOUT RAW] dup_frames=0\n[STDOUT RAW] drop_frames=0\n[STDOUT RAW] speed= 154x\n[STDOUT RAW] progress=continue\n[ConversionWorker] Cancel method called.\n[ConversionWorker] Cancellation requested during processing. Terminating FFmpeg.\n[ConversionWorker] Waiting for reader threads to join...\n[STDERR RAW] size=   30976KiB time=00:26:29.49 bitrate= 159.6kbits/s speed= 154x\n[ConversionWorker] Process poll is None after loop, waiting for process to terminate...\n[ConversionWorker] FFmpeg process ended. Return code: 1\n[ConversionWorker] Closing FFmpeg log file.\n